<?xml version="1.0" encoding="UTF-8" standalone="no"?>
<!-- Created with Inkscape (http://www.inkscape.org/) -->

<svg
   width="8.5in"
   height="11in"
   viewBox="0 0 215.9 279.4"
   version="1.1"
   id="svg12"
   inkscape:version="1.2.2 (b0a8486541, 2022-12-01)"
   sodipodi:docname="ToolPracice_nathan_warner.svg"
   xmlns:inkscape="http://www.inkscape.org/namespaces/inkscape"
   xmlns:sodipodi="http://sodipodi.sourceforge.net/DTD/sodipodi-0.dtd"
   xmlns="http://www.w3.org/2000/svg"
   xmlns:svg="http://www.w3.org/2000/svg">
  <sodipodi:namedview
     id="namedview14"
     pagecolor="#ffffff"
     bordercolor="#000000"
     borderopacity="0.25"
     inkscape:showpageshadow="2"
     inkscape:pageopacity="0.0"
     inkscape:pagecheckerboard="0"
     inkscape:deskcolor="#d1d1d1"
     inkscape:document-units="mm"
     showgrid="false"
     showguides="false"
     inkscape:zoom="0.7786055"
     inkscape:cx="126.50823"
     inkscape:cy="355.76425"
     inkscape:window-width="1886"
     inkscape:window-height="1024"
     inkscape:window-x="14"
     inkscape:window-y="36"
     inkscape:window-maximized="1"
     inkscape:current-layer="layer1" />
  <defs
     id="defs9" />
  <g
     inkscape:label="Layer 1"
     inkscape:groupmode="layer"
     id="layer1">
    <rect
       style="fill:#ffe6d5;stroke:#ff9955;stroke-width:0.264583"
       id="rect118"
       width="78.33622"
       height="42.776737"
       x="27.218664"
       y="21.255421" />
    <rect
       style="fill:#00ffff;stroke:#ff0000;stroke-width:0.264583"
       id="rect122"
       width="47.871716"
       height="42.33057"
       x="124.59222"
       y="22.012293" />
    <ellipse
       style="fill:#800080;stroke:#00ff00;stroke-width:0.264583"
       id="path290"
       cx="59.225887"
       cy="93.571838"
       rx="33.89455"
       ry="20.947985" />
    <ellipse
       style="fill:#ff00ff;stroke:#ffff00;stroke-width:0.264583"
       id="path292"
       cx="150.09761"
       cy="93.803467"
       rx="22.124968"
       ry="20.981285" />
    <path
       style="fill:#ffff00;stroke:#ff0000;stroke-width:0.264583"
       d="m 32.057446,127.86498 c 2.015183,-0.6272 3.537913,-1.16971 5.750402,-1.43199 3.602434,-0.42705 7.539109,0 11.171088,0 2.974049,0 6.225719,-0.3585 9.175056,0 0.390917,0.0475 0.714873,0.35651 1.102974,0.42322 0.660535,0.22707 1.368819,-0.11354 2.038903,0 1.925119,0.32618 3.903205,0.32945 5.811046,0.77187 0.246738,0.0572 0.428541,0.30657 0.679636,0.33981 0.62375,0.0826 1.262216,-0.0693 1.887577,0 1.127887,0.12504 5.594268,2.26811 6.457143,1.69909 0.947097,-0.62457 2.336186,-0.86032 3.485197,-1.42811 0.659739,-0.32601 1.506821,-1.18514 2.201614,-1.35736 1.352928,-0.33535 3.369784,0 4.763265,0"
       id="path359" />
    <path
       style="fill:#800080;stroke:#ff0000;stroke-width:0.264583"
       d="m 27.297106,137.93495 c 0.702296,-0.10343 1.398609,-0.26279 2.10689,-0.31028 3.042205,-0.20399 3.354937,0.27875 6.92294,0.41637 2.129346,0.0821 4.263664,-0.0877 6.392786,0 2.418569,0.0997 4.821112,0.47301 7.240107,0.56168 2.692135,0.0987 5.38897,-0.0764 8.081833,0 4.789162,0.1358 9.570344,0.48922 14.359172,0.63631 4.01523,0.12333 8.674161,0.36289 12.73851,0 3.288517,-0.29362 0.108921,-0.1968 2.081919,-0.69005 0.746263,-0.18656 1.632453,0.18657 2.378718,0 2.000033,-0.50001 -1.941729,-0.33981 1.01945,-0.33981"
       id="path361" />
    <path
       style="fill:#ff2a2a;stroke:#ff0000;stroke-width:0.264583"
       d="m 31.340272,147.77843 c 7.019318,-5.00757 15.91875,-3.22524 23.95027,-3.50901 2.408129,-0.0851 4.803566,-0.40634 7.211092,-0.50709 1.633786,-0.0684 3.27374,0.10395 4.90565,0 8.15354,-0.51939 -0.544534,-0.32711 5.004273,-0.95294 2.10143,-0.23701 7.026101,-0.26862 9.175057,0 2.984227,0.37303 0.11439,0.33982 1.334524,0.33982"
       id="path363" />
    <path
       style="fill:#d4aa00;stroke:#ff0000;stroke-width:0.264583"
       d="m 127.32105,126.49169 c 40.17948,-0.82364 40.17948,-0.82364 40.17948,-0.82364"
       id="path468" />
    <path
       sodipodi:type="spiral"
       style="fill:#00ffff;fill-rule:evenodd;stroke:#000000;stroke-width:2.27012;stroke-dasharray:none"
       id="path523"
       sodipodi:cx="14.928342"
       sodipodi:cy="146.74228"
       sodipodi:expansion="1"
       sodipodi:revolution="3"
       sodipodi:radius="35.796261"
       sodipodi:argument="-18.380077"
       sodipodi:t0="0"
       d="m 14.928342,146.74228 c 1.600581,0.81199 -0.304878,2.55816 -1.349583,2.66027 -2.831086,0.27672 -4.3605118,-2.96549 -3.9709605,-5.35944 0.6968165,-4.28221 5.4752585,-6.3191 9.3692915,-5.28165 5.71465,1.52251 8.320798,8.01368 6.592339,13.37915 -2.303765,7.15133 -10.561548,10.33996 -17.3890004,7.90303 -8.59165251,-3.06663 -12.367969,-13.11376 -9.2137168,-21.39886 3.8202221,-10.03436 15.6683762,-14.40107 25.4087082,-10.5244 11.478645,4.56852 16.43737,18.22449 11.835095,29.41856 -5.313508,12.924 -20.781601,18.4758 -33.4284169,13.14578 -14.3701161,-6.05629 -20.5157121,-23.33941 -14.4564731,-37.43827 6.7975509,-15.81678 25.897744,-22.55671 41.448126,-15.76716 17.263871,7.53769 24.598526,28.45646 17.077851,45.45798"
       transform="translate(41.512089,38.148247)" />
    <path
       sodipodi:type="spiral"
       style="fill:#ffd42a;fill-rule:evenodd;stroke:#000000;stroke-width:0.635;stroke-dasharray:none"
       id="path527"
       sodipodi:cx="14.928342"
       sodipodi:cy="146.74228"
       sodipodi:expansion="1"
       sodipodi:revolution="3"
       sodipodi:radius="35.796261"
       sodipodi:argument="-18.380077"
       sodipodi:t0="0"
       d="m 14.928342,146.74228 c 1.600581,0.81199 -0.304878,2.55816 -1.349583,2.66027 -2.831086,0.27672 -4.3605118,-2.96549 -3.9709605,-5.35944 0.6968165,-4.28221 5.4752585,-6.3191 9.3692915,-5.28165 5.71465,1.52251 8.320798,8.01368 6.592339,13.37915 -2.303765,7.15133 -10.561548,10.33996 -17.3890004,7.90303 -8.59165251,-3.06663 -12.367969,-13.11376 -9.2137168,-21.39886 3.8202221,-10.03436 15.6683762,-14.40107 25.4087082,-10.5244 11.478645,4.56852 16.43737,18.22449 11.835095,29.41856 -5.313508,12.924 -20.781601,18.4758 -33.4284169,13.14578 -14.3701161,-6.05629 -20.5157121,-23.33941 -14.4564731,-37.43827 6.7975509,-15.81678 25.897744,-22.55671 41.448126,-15.76716 17.263871,7.53769 24.598526,28.45646 17.077851,45.45798"
       transform="translate(133.1215,36.877604)" />
  </g>
</svg>
